<svg width="117" height="36" viewBox="0 0 117 36" fill="none" xmlns="http://www.w3.org/2000/svg">
<path d="M72.655 27.5317C65.9364 32.4994 56.164 35.1461 47.7353 35.1461C35.9269 35.1461 25.3401 30.7892 17.2778 23.5413C16.667 22.9712 17.1964 22.1976 17.97 22.6455C26.6431 27.6946 37.352 30.7078 48.4275 30.7078C55.879 30.7078 64.1041 29.1604 71.6777 25.9437C72.8179 25.4958 73.7544 26.7173 72.655 27.5317Z" fill="white"/>
<path d="M75.4644 24.3138C74.6093 23.2144 69.7638 23.7845 67.6057 24.0695C66.9542 24.151 66.8321 23.5809 67.4428 23.1737C71.3111 20.4456 77.6225 21.26 78.3554 22.1558C79.0883 23.0516 78.1518 29.4037 74.5279 32.4168C73.9578 32.8647 73.4285 32.6204 73.6728 32.0096C74.4871 29.9737 76.3195 25.454 75.4644 24.3138Z" fill="white"/>
<path fill-rule="evenodd" clip-rule="evenodd" d="M24.6878 20.4453H21.1046C20.7789 20.4046 20.4938 20.1603 20.4531 19.8345V1.42977C20.4531 1.06331 20.7789 0.778279 21.1453 0.778279H24.4843C24.8507 0.778279 25.095 1.06331 25.1358 1.38906V3.79145H25.2172C26.0723 1.47049 27.7417 0.371094 29.9405 0.371094C32.1801 0.371094 33.6052 1.47049 34.5824 3.79145C35.4375 1.47049 37.4327 0.371094 39.5501 0.371094C41.0567 0.371094 42.6854 0.981871 43.7034 2.40702C44.6738 3.72401 44.6413 5.54249 44.6101 7.28496C44.6046 7.58967 44.5992 7.89207 44.5992 8.18905V19.8345C44.5992 20.201 44.2735 20.486 43.907 20.486H40.3645C39.998 20.4453 39.713 20.1603 39.713 19.8345V10.0621C39.713 9.89557 39.7168 9.67433 39.721 9.42233C39.7367 8.50363 39.7594 7.17619 39.6315 6.60103C39.3465 5.37947 38.5729 5.013 37.5142 5.013C36.6591 5.013 35.7226 5.58306 35.3561 6.51959C35.0219 7.37364 35.0263 8.73563 35.0297 9.77179C35.03 9.87185 35.0304 9.96887 35.0304 10.0621V19.8345C35.0304 20.201 34.7046 20.486 34.3381 20.486H30.7549C30.3884 20.4453 30.1034 20.1603 30.1034 19.8345V10.0621C30.1034 9.85925 30.1066 9.64629 30.11 9.42725C30.14 7.44793 30.1776 4.97229 27.9046 4.97229C25.4152 4.97229 25.4183 7.73313 25.4206 9.86864L25.4208 10.0621V19.8345C25.3801 20.1603 25.095 20.4453 24.6878 20.4453ZM67.7273 4.03576V1.38906C67.7273 0.981871 68.0123 0.73756 68.3788 0.73756H80.1872C80.5536 0.73756 80.8794 1.02259 80.8794 1.38906V3.62857C80.8794 3.99504 80.5536 4.48366 79.9836 5.29803L73.8758 14.0118C76.156 13.9711 78.5584 14.2968 80.5944 15.4369C81.0423 15.6813 81.1644 16.0884 81.2051 16.4549V19.2645C81.2051 19.6717 80.798 20.1196 80.3501 19.8753C76.7261 17.9615 71.8806 17.7579 67.8902 19.916C67.483 20.1196 67.0351 19.7124 67.0351 19.3052V16.6178C67.0351 16.2106 67.0351 15.4777 67.483 14.8262L74.568 4.68726H68.4195C68.0531 4.68726 67.7273 4.40223 67.7273 4.03576ZM99.2841 10.7543C99.2841 4.93157 96.3931 0.371094 91.059 0.371094C85.847 0.371094 82.956 4.85013 82.9967 10.5914C82.9967 16.292 85.847 20.8525 91.059 20.8525C96.1081 20.8525 99.2841 16.3735 99.2841 10.7543ZM91.059 4.15791C88.4123 4.15791 88.2494 7.78186 88.2494 10.0214L88.2494 10.116C88.2489 12.3933 88.2477 17.0657 91.0183 17.0657C93.7872 17.0657 93.95 13.1974 93.95 10.8357C93.95 9.28845 93.8686 7.4154 93.4207 5.94953C93.0135 4.64654 92.1991 4.15791 91.059 4.15791ZM102.582 20.4453H106.166C106.532 20.4453 106.858 20.1603 106.899 19.7938V9.85851C106.899 8.59623 106.98 7.49683 107.469 6.35671C107.876 5.46091 108.69 4.89085 109.545 4.89085C111.829 4.89085 111.806 7.37039 111.788 9.35239C111.786 9.52556 111.785 9.69492 111.785 9.85851V19.8753C111.825 20.1603 112.11 20.4046 112.436 20.4453H116.019C116.386 20.4453 116.671 20.201 116.712 19.8753V8.27048C116.712 6.47887 116.712 3.99504 115.775 2.52917C114.757 0.941153 113.169 0.371094 111.581 0.371094C109.097 0.371094 107.713 1.55193 106.695 4.07648H106.613V1.2669C106.532 0.981871 106.288 0.73756 105.962 0.73756H102.623C102.257 0.73756 101.972 1.02259 101.931 1.34834V19.7938C101.931 20.1196 102.216 20.4046 102.582 20.4453Z" fill="white"/>
<path fill-rule="evenodd" clip-rule="evenodd" d="M61.09 20.4868C61.3751 20.6497 61.7008 20.609 61.9451 20.4054C62.2053 20.1886 62.5373 19.9051 62.8919 19.6022C63.5364 19.0519 64.2557 18.4377 64.7547 18.0437C65.0397 17.8401 64.999 17.4329 64.7547 17.1072C64.6762 16.9943 64.5971 16.8844 64.5186 16.7754C63.9464 15.9803 63.411 15.2365 63.411 13.7682V8.18981C63.411 8.00337 63.412 7.81794 63.413 7.63373C63.4248 5.48452 63.4356 3.50076 61.823 2.0006C60.4385 0.656888 58.1583 0.208984 56.4074 0.208984C52.9871 0.208984 49.2002 1.47126 48.3859 5.70598C48.3044 6.15389 48.6302 6.35748 48.9152 6.43892L52.3763 6.80538C52.702 6.80538 52.9056 6.47963 52.9871 6.15389C53.2721 4.68802 54.4936 3.99581 55.8781 3.99581C56.611 3.99581 57.4254 4.28084 57.8733 4.93233C58.3413 5.58031 58.3319 6.45106 58.3234 7.23509C58.3223 7.33789 58.3212 7.4392 58.3212 7.53832V7.98622C57.9833 8.02597 57.6283 8.06356 57.2621 8.10232C55.3774 8.30185 53.1984 8.53252 51.5619 9.24849C49.3224 10.2257 47.7344 12.1802 47.7344 15.112C47.7344 18.8173 50.096 20.6904 53.1092 20.6904C55.6338 20.6904 57.0589 20.0796 59.0134 18.0844C59.1081 18.2205 59.1941 18.3471 59.2757 18.4671C59.7557 19.1732 60.0808 19.6515 61.09 20.4868ZM58.3214 11.8694C58.3213 11.7971 58.3212 11.7243 58.3212 11.6509V10.8772C55.7152 10.8772 52.9871 11.4473 52.9871 14.5012C52.9871 16.0485 53.8014 17.1072 55.1859 17.1072C56.2038 17.1072 57.0996 16.4964 57.6697 15.4784C58.3252 14.2831 58.3234 13.1607 58.3214 11.8694Z" fill="white"/>
<path fill-rule="evenodd" clip-rule="evenodd" d="M14.0197 20.4868C14.3048 20.6497 14.6305 20.609 14.8748 20.4054C15.135 20.1886 15.467 19.9051 15.8216 19.6022C16.4661 19.0519 17.1854 18.4377 17.6844 18.0437C17.9694 17.8401 17.9287 17.4329 17.6844 17.1072C17.6059 16.9943 17.5268 16.8844 17.4483 16.7754C16.8761 15.9803 16.3407 15.2365 16.3407 13.7682V8.18981C16.3407 8.00337 16.3417 7.81794 16.3427 7.63373C16.3545 5.48452 16.3653 3.50076 14.7527 2.0006C13.3682 0.656888 11.088 0.208984 9.3371 0.208984C5.91675 0.208984 2.12993 1.47126 1.31556 5.70598C1.23412 6.15389 1.55987 6.35748 1.8449 6.43892L5.30597 6.80538C5.63172 6.80538 5.83531 6.47963 5.91675 6.15389C6.20178 4.68802 7.42334 3.99581 8.80776 3.99581C9.5407 3.99581 10.3551 4.28084 10.803 4.93233C11.271 5.58031 11.2615 6.45106 11.2531 7.23509C11.252 7.33789 11.2509 7.4392 11.2509 7.53832V7.98622C10.913 8.02597 10.5579 8.06356 10.1918 8.10232C8.30704 8.30185 6.12812 8.53252 4.4916 9.24849C2.25208 10.2257 0.664062 12.1802 0.664062 15.112C0.664062 18.8173 3.02574 20.6904 6.03891 20.6904C8.56345 20.6904 9.9886 20.0796 11.9431 18.0844C12.0377 18.2205 12.1238 18.3471 12.2054 18.4671C12.6853 19.1732 13.0105 19.6515 14.0197 20.4868ZM11.2918 11.8694C11.2917 11.7971 11.2916 11.7243 11.2916 11.6509V10.8772C8.68561 10.8772 5.95747 11.4473 5.95747 14.5012C5.95747 16.0485 6.77184 17.1072 8.15627 17.1072C9.17423 17.1072 10.07 16.4964 10.6401 15.4784C11.2956 14.2831 11.2939 13.1607 11.2918 11.8694Z" fill="white"/>
</svg>
