<svg width="166" height="35" viewBox="0 0 166 35" fill="none" xmlns="http://www.w3.org/2000/svg">
<path d="M34.1062 21.768C31.8049 31.0004 22.4555 36.6166 13.2231 34.3152C3.99547 32.0138 -1.6223 22.664 0.680158 13.4336C2.98047 4.20119 12.3292 -1.41658 21.5585 0.884801C30.7899 3.18619 36.4071 12.5371 34.1057 21.768H34.1062Z" fill="white"/>
<path fill-rule="evenodd" clip-rule="evenodd" d="M24.9897 15.1451C25.3327 12.8524 23.587 11.6198 21.2 10.7976L21.9743 7.69174L20.0838 7.22059L19.3299 10.2446C18.8264 10.1209 18.3216 10.002 17.8158 9.88812L18.575 6.8442L16.685 6.37305L15.9107 9.47782C15.4993 9.38412 15.0954 9.29151 14.7034 9.19405L14.7056 9.18435L12.0984 8.53335L11.5954 10.5526C11.5954 10.5526 12.9981 10.874 12.9685 10.894C13.7342 11.0851 13.8726 11.5918 13.8494 11.9935L12.9674 15.5317C13.0202 15.5452 13.0886 15.5651 13.164 15.5947L12.9642 15.5452L11.7279 20.5017C11.6342 20.7344 11.3968 21.0833 10.861 20.9508C10.8804 20.9783 9.48737 20.6078 9.48737 20.6078L8.54883 22.7724L11.0091 23.3863C11.2911 23.4566 11.5696 23.5292 11.8452 23.601C12.0169 23.6458 12.1874 23.6902 12.3568 23.7336L11.5744 26.875L13.4628 27.3461L14.2371 24.2376C14.753 24.3781 15.2538 24.5068 15.7438 24.629L14.9716 27.7225L16.8616 28.1937L17.6445 25.0582C20.8683 25.6683 23.2924 25.4222 24.3128 22.507C25.1351 20.1593 24.2719 18.805 22.5758 17.9214C23.811 17.636 24.7414 16.8235 24.9897 15.1451ZM20.6696 21.2017C20.1333 23.3568 16.7586 22.4647 15.2171 22.0572C15.0793 22.0208 14.9562 21.9882 14.851 21.962L15.8891 17.8003C16.0184 17.8326 16.1763 17.8681 16.3553 17.9083C17.9515 18.2668 21.2186 19.0007 20.6696 21.2017ZM16.6742 15.9769C17.9604 16.3202 20.7657 17.0689 21.2544 15.1117V15.1112C21.7534 13.1088 19.0268 12.5052 17.6951 12.2104C17.5453 12.1773 17.4132 12.148 17.3053 12.1211L16.3641 15.8957C16.453 15.9179 16.5573 15.9458 16.6742 15.9769Z" fill="white"/>
<path fill-rule="evenodd" clip-rule="evenodd" d="M50.6594 10.7939C52.0567 10.7939 53.2639 11.0443 54.2779 11.5359C55.2977 12.0324 56.1388 12.7011 56.8135 13.5422C57.479 14.3876 57.9744 15.3757 58.2943 16.508C58.6119 17.6442 58.7713 18.8644 58.7713 20.1707C58.7713 22.1791 58.4036 24.0745 57.661 25.8622C56.9179 27.6526 55.911 29.206 54.6295 30.5307C53.349 31.8537 51.837 32.8961 50.0935 33.6667C48.3526 34.4377 46.4599 34.8233 44.4278 34.8233C44.165 34.8233 43.703 34.8157 43.0504 34.8023C42.3978 34.7888 41.6477 34.7215 40.8077 34.6084C39.9048 34.4795 39.0092 34.3037 38.1246 34.0818C37.1987 33.8583 36.2993 33.537 35.4414 33.1234L42.9863 1.41982L49.744 0.373047L47.0426 11.6231C47.6044 11.3692 48.1874 11.1652 48.785 11.0136C49.3984 10.8645 50.0276 10.7907 50.6589 10.7939H50.6594ZM44.991 29.4624C46.0087 29.4624 46.9672 29.212 47.8686 28.7209C48.7746 28.2256 49.5697 27.5501 50.2049 26.7361C50.8688 25.8874 51.3912 24.9369 51.7519 23.9216C52.1302 22.872 52.3223 21.7645 52.3195 20.6488C52.3195 19.2531 52.0863 18.1665 51.6216 17.3787C51.1569 16.5953 50.297 16.2011 49.0478 16.2011C48.6386 16.2011 48.1119 16.2792 47.4583 16.4187C46.8024 16.5667 46.2155 16.8742 45.6894 17.3367L42.8124 29.2841C42.9858 29.3148 43.1393 29.3439 43.2701 29.3714C43.3983 29.401 43.5393 29.422 43.6809 29.4365C43.8301 29.4532 44.0008 29.4618 44.207 29.4618L44.9905 29.4624H44.991ZM59.3249 34.217H65.7794L71.2744 11.2801H64.7757L59.3249 34.217ZM68.9203 8.48551C68.0397 8.49281 67.1812 8.20969 66.4778 7.67997C65.7471 7.14582 65.3847 6.32359 65.3847 5.21543C65.3847 4.60589 65.5086 4.03405 65.7546 3.49451C65.9924 2.97185 66.3259 2.4983 66.7379 2.09828C67.1507 1.70419 67.6302 1.38643 68.154 1.15974C68.6992 0.926771 69.2864 0.808371 69.8793 0.811893C70.7796 0.811893 71.5916 1.08005 72.3196 1.61743C73.0443 2.15751 73.4089 2.97974 73.4089 4.08197C73.4124 4.67692 73.2856 5.26544 73.0373 5.80612C72.8018 6.32928 72.4693 6.80306 72.0573 7.20235C71.6454 7.59695 71.1657 7.91398 70.6412 8.1382C70.1016 8.37405 69.5298 8.48551 68.9203 8.48551ZM83.6913 4.51812L76.9309 5.56543L72.6556 23.6179C72.3072 25.1003 72.1047 26.5089 72.0455 27.8486C71.9879 29.1856 72.1941 30.3718 72.6556 31.4003C73.1235 32.433 73.9053 33.2494 75.0113 33.846C76.1189 34.4383 77.6735 34.736 79.6787 34.736C81.0733 34.736 82.28 34.6235 83.2993 34.3887C84.2607 34.1737 85.2075 33.8976 86.1338 33.5622L85.6513 28.5895C85.0048 28.8182 84.3425 29 83.6698 29.1334C83.015 29.2647 82.336 29.331 81.6398 29.331C80.7944 29.331 80.1499 29.213 79.6992 28.9788C79.2469 28.7489 78.9356 28.4231 78.7623 28.0004C78.5878 27.5788 78.5135 27.078 78.5458 26.4949C78.5738 25.9139 78.6739 25.2893 78.8506 24.621L80.7675 16.598H87.964L89.2714 11.279H82.0313L83.6913 4.51812ZM88.9876 25.0583C88.9876 23.0821 89.3075 21.2196 89.9461 19.475C90.5842 17.7293 91.5033 16.2027 92.6955 14.8932C93.8839 13.5901 95.3318 12.5568 97.0366 11.7987C98.7316 11.0448 100.631 10.6647 102.724 10.6647C104.034 10.6647 105.204 10.7885 106.235 11.0367C107.268 11.2871 108.203 11.6107 109.049 12.0167L106.824 17.0783C106.23 16.8398 105.627 16.6289 105.014 16.4461C104.389 16.2539 103.627 16.1613 102.725 16.1613C100.57 16.1613 98.8679 16.9044 97.6003 18.384C96.3371 19.8654 95.7012 21.8593 95.7012 24.361C95.7012 25.8434 96.0216 27.0414 96.6634 27.9584C97.302 28.8754 98.4818 29.332 100.195 29.332C101.039 29.332 101.856 29.2437 102.637 29.0714C103.424 28.897 104.119 28.6773 104.732 28.4177L105.214 33.6064C104.331 33.9451 103.428 34.2299 102.511 34.4593C101.52 34.7016 100.342 34.8265 98.9761 34.8265C97.1733 34.8265 95.6463 34.5632 94.3981 34.043C93.1489 33.5159 92.1166 32.8154 91.303 31.928C90.4856 31.0384 89.8993 29.9992 89.5363 28.8076C89.1734 27.616 88.9871 26.363 88.9871 25.0583H88.9876ZM113.646 34.1254C114.782 34.5901 116.12 34.8249 117.661 34.8249C119.783 34.8249 121.653 34.3807 123.264 33.4938C124.879 32.6075 126.223 31.467 127.298 30.0724C128.374 28.6757 129.19 27.1034 129.74 25.3641C130.289 23.6174 130.565 21.8695 130.565 20.1281C130.565 18.734 130.378 17.4595 129.998 16.3142C129.622 15.1635 129.061 14.1711 128.323 13.3257C127.578 12.4847 126.634 11.8272 125.489 11.3636C124.338 10.8989 123.007 10.6636 121.495 10.6636C119.433 10.6636 117.598 11.1084 116.003 11.9925C114.407 12.8826 113.05 14.0241 111.95 15.4204C110.843 16.8144 110.005 18.3835 109.441 20.1281C108.873 21.8711 108.593 23.6179 108.593 25.3647C108.593 26.7577 108.776 28.029 109.157 29.177C109.537 30.3255 110.093 31.3222 110.836 32.1633C111.578 33.0087 112.515 33.6613 113.646 34.1254ZM120.886 16.1618C119.929 16.1618 119.083 16.4391 118.359 16.9878C117.632 17.543 117.022 18.2414 116.53 19.0824C116.032 19.9278 115.664 20.8497 115.415 21.8517C115.167 22.856 115.046 23.8064 115.046 24.7072C115.046 26.1627 115.281 27.2972 115.742 28.1124C116.21 28.9234 117.051 29.332 118.272 29.332C119.232 29.332 120.074 29.0558 120.802 28.5017C121.525 27.9509 122.136 27.2525 122.632 26.4087C123.126 25.5687 123.498 24.6437 123.747 23.6394C123.991 22.6384 124.116 21.6837 124.116 20.7834C124.116 19.3317 123.882 18.1956 123.416 17.3809C122.952 16.5694 122.107 16.1613 120.886 16.1613V16.1618ZM131.14 34.217H137.599L143.092 11.2801H136.591L131.14 34.217ZM140.735 8.48551C139.856 8.49294 138.998 8.20978 138.296 7.67997C137.568 7.14582 137.203 6.32359 137.203 5.21543C137.203 4.60589 137.329 4.03405 137.574 3.49451C137.81 2.97123 138.144 2.49746 138.556 2.09828C138.97 1.70405 139.45 1.38628 139.974 1.15974C140.517 0.926726 141.102 0.808307 141.693 0.811893C142.596 0.811893 143.411 1.08005 144.137 1.61743C144.864 2.15751 145.23 2.97974 145.23 4.08197C145.23 4.69366 145.1 5.26766 144.856 5.80612C144.612 6.34459 144.284 6.8082 143.878 7.20235C143.465 7.59602 142.986 7.91293 142.462 8.1382C141.921 8.37405 141.349 8.48551 140.735 8.48551ZM149.376 11.8202C148.781 12.0076 148.234 12.1799 147.744 12.3231L142.465 34.2132H148.965L153.195 16.4666C154.042 16.2938 154.903 16.2051 155.767 16.2017C156.639 16.2017 157.283 16.3691 157.709 16.7024C158.123 17.0308 158.408 17.4947 158.513 18.0125C158.633 18.5526 158.639 19.1777 158.536 19.8864C158.434 20.6014 158.296 21.3337 158.121 22.0903L155.243 34.2148H161.74L164.709 21.8302C165.549 18.4007 165.325 15.696 164.031 13.7194C162.735 11.7427 160.389 10.7514 156.985 10.7514C155.827 10.7514 154.784 10.802 153.87 10.9059C152.955 11.0077 152.123 11.1396 151.386 11.3011C150.708 11.4419 150.037 11.6151 149.376 11.8202Z" fill="white"/>
</svg>
