<svg width="169" height="36" viewBox="0 0 169 36" fill="none" xmlns="http://www.w3.org/2000/svg">
<path fill-rule="evenodd" clip-rule="evenodd" d="M13.8944 24.9758C16.5816 29.3818 21.5101 32.3379 26.9952 32.3379C35.0997 32.3379 39.5611 25.3438 39.5611 25.3438L40.1354 27.2068C36.3833 32.0867 29.6803 35.0264 22.181 35.0264C13.5469 35.0264 6.10052 30.9075 2.67424 24.9678C1.3842 22.7306 0.664062 20.2316 0.664062 17.5998C0.664062 7.97542 10.2965 0.173828 22.1807 0.173828C30.5776 0.173828 37.3382 3.77046 40.8871 8.98268L26.7979 17.4195L34.8386 5.0729C32.5382 3.62613 29.7159 2.27135 26.7979 2.27135C18.5491 2.27135 11.755 9.15489 11.755 17.4034C11.755 20.1672 12.5399 22.764 13.8944 24.9758ZM51.6194 24.9709C51.5772 25.2523 51.556 25.5365 51.5562 25.8211C51.5562 28.9522 54.0948 31.4911 57.2262 31.4911C60.3576 31.4911 62.8959 28.9525 62.8959 25.8211C62.8961 25.5355 62.8748 25.2502 62.8324 24.9678C62.4223 22.243 60.0687 20.1514 57.2259 20.1514C54.3835 20.1514 52.0295 22.243 51.6194 24.9709ZM75.4761 34.4599L72.6581 24.9678L68.4597 10.8262C68.4597 10.8262 65.8071 3.60321 57.4365 6.64852C49.066 9.69414 47.1784 10.8262 47.1784 10.8262H58.5234L61.2159 19.8283C59.1447 17.9987 56.1134 16.8447 52.736 16.8447C46.7857 16.8447 41.9095 20.4274 41.4654 24.9678C41.4437 25.1985 41.4326 25.4246 41.4326 25.6523C41.4326 30.517 46.493 34.4599 52.736 34.4599C57.9538 34.4599 62.3461 31.7054 63.6476 27.9601L65.5912 34.4599H75.4761ZM104.263 24.9678V34.4599H94.0915V13.6048C94.0915 12.0703 92.8474 10.8262 91.3128 10.8262C90.1673 10.8259 89.139 11.5287 88.7231 12.596V34.4599H78.7407V10.8262H72.9189C72.9189 10.8262 81.0179 5.91971 83.8262 5.91971C86.4878 5.91971 88.4577 7.96458 88.7039 10.5694C89.458 10.1627 90.2108 9.74027 90.9541 9.32322C94.0714 7.57394 97.0194 5.91971 99.1773 5.91971C101.938 5.91971 104.186 8.12007 104.263 10.8634V24.9678ZM121.347 29.6463L119.931 24.9678L115.655 10.8259C115.887 8.98175 117.705 7.19954 119.613 7.19954C121.54 7.19954 123.126 8.65436 123.334 10.5258L127.56 24.9678L128.763 29.0801C128.779 29.222 128.788 29.366 128.788 29.5125C128.788 31.58 127.112 33.2556 125.044 33.2556C123.022 33.2556 121.374 31.6515 121.347 29.6463ZM136.118 24.9696C134.192 30.8103 128.69 35.0264 122.204 35.0264C115.717 35.0264 110.216 30.8106 108.289 24.9678C107.801 23.4869 107.553 21.9375 107.555 20.3784C107.555 12.2885 114.113 5.73077 122.204 5.73077C130.294 5.73077 136.852 12.2885 136.852 20.3784C136.852 21.9819 136.594 23.5256 136.118 24.9696ZM152.958 34.4599V24.9678V12.596C153.374 11.5287 154.403 10.8259 155.548 10.8262C157.083 10.8262 158.327 12.0703 158.327 13.6048V34.4599H168.498V10.8634C168.422 8.12007 166.174 5.91971 163.413 5.91971C161.255 5.91971 158.308 7.57355 155.191 9.32259C154.447 9.73985 153.694 10.1625 152.94 10.5694C152.693 7.96458 150.723 5.91971 148.061 5.91971C145.253 5.91971 137.393 10.8262 137.393 10.8262H142.976V34.4599H152.958Z" fill="white"/>
</svg>
