<svg width="170" height="36" viewBox="0 0 170 36" fill="none" xmlns="http://www.w3.org/2000/svg">
<path fill-rule="evenodd" clip-rule="evenodd" d="M20.9791 0.335938C24.5868 0.928245 27.9791 2.92055 30.133 5.88209C30.5637 6.4744 30.9945 7.12055 31.3176 7.82055C30.7948 8.18249 30.272 8.53691 29.752 8.88943L29.7519 8.88949C28.8794 9.48098 28.0149 10.0671 27.1714 10.6744C26.956 10.8359 26.7945 10.9436 26.5253 11.0513C25.8791 9.43594 24.7483 7.98209 23.2945 7.01286C22.2176 6.31286 20.9791 5.82825 19.7407 5.55901C20.0437 4.17378 20.3815 2.78854 20.7261 1.37532L20.7262 1.37516C20.8102 1.03055 20.8947 0.684279 20.9791 0.335938ZM7.94835 1.89748C9.61758 1.35901 11.556 2.22055 12.256 3.78209C12.8483 4.96671 12.6868 6.52825 11.8791 7.55132C10.856 8.84363 8.91758 9.32825 7.46373 8.5744C6.4945 8.08978 5.74065 7.1744 5.52527 6.09748C5.36373 5.28978 5.41758 4.42825 5.84835 3.6744C6.27912 2.81286 7.08681 2.22055 7.94835 1.89748ZM4.45636 20.247C3.14612 20.235 1.84378 20.2232 0.517578 20.259C0.840655 22.8436 1.64835 25.3206 3.04835 27.3667C4.23296 29.3052 5.90219 30.9744 7.78681 32.2129C11.2868 34.5282 15.6483 35.3898 19.7945 34.8513C21.8945 34.5821 23.9945 33.8821 25.8253 32.8052C28.6791 31.1359 30.8868 28.4975 32.0714 25.4282C32.2868 24.8898 32.5022 24.3513 32.556 23.8129C31.8075 23.586 31.0781 23.3401 30.3517 23.0952C29.3537 22.7587 28.3614 22.4241 27.333 22.1436C26.956 23.5436 26.256 24.8359 25.3407 25.9667C23.9945 27.6359 22.1637 28.7667 20.1176 29.2513C17.856 29.7898 15.4868 29.6821 13.333 28.8744C11.7714 28.2821 10.3176 27.3667 9.18681 26.0744C7.73296 24.459 6.81758 22.4129 6.44066 20.259C5.77455 20.259 5.11446 20.253 4.45636 20.247Z" fill="white"/>
<path fill-rule="evenodd" clip-rule="evenodd" d="M85.9182 12.9359C89.8489 9.70515 95.9335 9.759 99.972 12.8282C103.364 15.5205 104.28 20.1513 103.957 24.2436C100.185 24.2795 96.3902 24.2675 92.603 24.2556C90.7125 24.2496 88.8239 24.2436 86.9412 24.2436C87.2105 26.5052 88.4489 28.8205 90.6566 29.6821C93.8335 31.2436 98.0335 29.7359 99.1643 26.2898C99.4646 26.3829 99.7628 26.4761 100.06 26.5689L100.06 26.569L100.06 26.5691C101.308 26.9588 102.534 27.3419 103.795 27.6898C102.934 30.059 101.372 32.2667 99.1105 33.5052C94.6951 36.0359 88.5566 35.2821 84.9489 31.6205C79.9951 26.6667 80.372 17.3513 85.9182 12.9359ZM49.8951 11.3205C45.4258 9.43592 39.8258 11.3205 37.2951 15.4128C33.9566 20.6359 34.6028 28.3898 39.3951 32.5898C43.272 35.9282 50.4335 36.0898 53.1797 31.1898C53.2066 31.7282 53.2335 32.2532 53.2605 32.7782C53.2874 33.3032 53.3143 33.8282 53.3412 34.3667H58.6182C58.344 29.4667 58.3752 24.5667 58.4063 19.6667C58.4241 16.8667 58.4419 14.0667 58.4028 11.2667H53.0182C53.0182 12.2898 53.0182 13.259 53.072 14.2282C52.2643 12.9898 51.2951 11.859 49.8951 11.3205ZM41.9258 27.3128C39.6643 23.4359 40.5258 16.759 45.4797 15.5205C48.0643 14.8744 51.0797 16.059 52.2105 18.5359C53.6643 21.7128 53.4489 25.9128 50.972 28.4975C48.4951 31.1359 43.6489 30.4898 41.9258 27.3128ZM87.1627 19.8179C87.4435 18.8516 87.7371 17.8414 88.4489 17.0821C90.3874 14.7667 94.2105 14.5513 96.5258 16.2744C97.7643 17.1898 98.1951 18.6975 98.572 20.0975C95.703 20.2591 92.8037 20.2388 89.9196 20.2186H89.9194H89.9193H89.9191H89.919C88.9601 20.2119 88.0028 20.2052 87.0489 20.2052C87.0873 20.0774 87.1248 19.948 87.1627 19.8179ZM112.195 12.7205C115.91 9.86669 121.349 9.86669 125.28 12.2898C129.157 14.8205 130.449 19.8821 129.91 24.2436C126.141 24.2077 122.372 24.2197 118.603 24.2316L118.602 24.2316C116.718 24.2376 114.833 24.2436 112.949 24.2436C113.218 25.5898 113.541 26.9898 114.457 28.0128C116.503 30.5436 120.595 31.0282 123.18 29.0898C123.801 28.6409 124.201 27.9928 124.593 27.3584C124.812 27.0034 125.029 26.6527 125.28 26.3436C126.41 26.6263 127.541 26.9999 128.672 27.3734C129.049 27.4979 129.426 27.6225 129.803 27.7436C128.941 30.1667 127.326 32.3744 125.01 33.6128C120.649 35.9821 114.726 35.3359 111.172 31.8359C105.895 26.8282 106.326 17.0821 112.195 12.7205ZM113.108 19.8484C113.391 18.8828 113.678 17.9027 114.349 17.1359C116.341 14.659 120.38 14.4975 122.695 16.4359C123.826 17.4052 124.203 18.859 124.472 20.2052H113.003C113.038 20.0867 113.073 19.9677 113.108 19.8484ZM140.464 14.0667C143.534 9.32823 151.664 9.38207 154.249 14.5513C156.726 10.2975 162.918 9.32823 166.795 12.1821C168.895 13.7975 169.864 16.4898 169.864 19.0744C169.9 22.4477 169.888 25.8209 169.876 29.1942V29.1975C169.87 30.8846 169.864 32.5718 169.864 34.259H164.534V20.6359C164.534 19.2359 164.318 17.7282 163.349 16.7052C161.303 14.659 157.372 15.1975 156.026 17.7821C155.326 18.9667 155.326 20.4205 155.326 21.7128V34.259H149.941C149.918 32.1588 149.925 30.0585 149.931 27.9625V27.9605V27.9604C149.94 25.167 149.949 22.3811 149.887 19.6128C149.887 17.459 148.11 15.4667 145.903 15.5205C143.318 15.1436 140.895 17.2436 140.734 19.7744C140.637 22.684 140.656 25.5936 140.675 28.4916V28.4923C140.688 30.4208 140.701 32.3442 140.68 34.259H135.241V11.159H140.518C140.518 12.1821 140.518 13.1513 140.464 14.0667ZM70.7874 11.2128H65.4028V34.3128H70.8951C70.922 32.4013 70.922 30.4897 70.922 28.5781C70.922 26.6666 70.922 24.7551 70.9489 22.8436C71.0028 20.9052 71.5951 18.6975 73.3182 17.5667C74.7719 16.5006 76.6183 16.5684 78.3468 16.6319C78.539 16.6389 78.7296 16.6459 78.9182 16.6513V10.9975C75.7412 10.5667 72.2412 11.8052 70.7335 14.8205C70.7335 14.2282 70.747 13.6225 70.7605 13.0167C70.7739 12.4109 70.7874 11.8052 70.7874 11.2128Z" fill="white"/>
</svg>
