<svg width="157" height="158" viewBox="0 0 157 158" fill="none" xmlns="http://www.w3.org/2000/svg">
<g filter="url(#filter0_d_391_21638)">
<circle cx="78.5" cy="63.6797" r="48.5" fill="#FF2D59"/>
<path d="M77.8115 55.8438H71.3365C70.6523 55.8436 69.9845 56.0539 69.424 56.4463C68.8634 56.8387 68.4372 57.3941 68.2032 58.0371L61.9365 75.2738C61.7148 75.8821 61.8665 76.5638 62.3232 77.0221L62.8115 77.5104L73.5148 66.8071C73.5132 66.7638 73.5015 66.7204 73.5015 66.6771C73.5015 66.1827 73.6481 65.6993 73.9228 65.2882C74.1975 64.8771 74.588 64.5566 75.0448 64.3674C75.5016 64.1782 76.0043 64.1287 76.4892 64.2251C76.9742 64.3216 77.4196 64.5597 77.7693 64.9093C78.1189 65.259 78.357 65.7044 78.4535 66.1894C78.5499 66.6743 78.5004 67.177 78.3112 67.6338C78.122 68.0906 77.8016 68.4811 77.3904 68.7558C76.9793 69.0305 76.496 69.1771 76.0015 69.1771C75.9582 69.1771 75.9148 69.1654 75.8715 69.1638L65.1682 79.8671L65.6565 80.3554C65.8806 80.5801 66.1643 80.7359 66.4741 80.8044C66.784 80.8729 67.1069 80.8513 67.4048 80.7421L84.6415 74.4738C85.2845 74.2398 85.8399 73.8135 86.2323 73.253C86.6247 72.6924 86.8351 72.0247 86.8348 71.3404V64.8654L90.1665 61.5354L81.1432 52.5121L77.8115 55.8438ZM91.7332 59.2804L83.3998 50.9471L86.9332 47.4121L95.2665 55.7454L91.7332 59.2804Z" fill="white"/>
</g>
<defs>
<filter id="filter0_d_391_21638" x="0" y="0.179688" width="157" height="157" filterUnits="userSpaceOnUse" color-interpolation-filters="sRGB">
<feFlood flood-opacity="0" result="BackgroundImageFix"/>
<feColorMatrix in="SourceAlpha" type="matrix" values="0 0 0 0 0 0 0 0 0 0 0 0 0 0 0 0 0 0 127 0" result="hardAlpha"/>
<feOffset dy="15"/>
<feGaussianBlur stdDeviation="15"/>
<feComposite in2="hardAlpha" operator="out"/>
<feColorMatrix type="matrix" values="0 0 0 0 1 0 0 0 0 0.176471 0 0 0 0 0.34902 0 0 0 0.4 0"/>
<feBlend mode="normal" in2="BackgroundImageFix" result="effect1_dropShadow_391_21638"/>
<feBlend mode="normal" in="SourceGraphic" in2="effect1_dropShadow_391_21638" result="shape"/>
</filter>
</defs>
</svg>
