<svg width="158" height="158" viewBox="0 0 158 158" fill="none" xmlns="http://www.w3.org/2000/svg">
<g filter="url(#filter0_d_391_21679)">
<circle cx="79" cy="63.6797" r="48.5" fill="#FF6800"/>
<rect width="40" height="40" transform="translate(59 44.1797)" fill="#FF6800"/>
<path d="M69.0007 79.1803H64.0007C63.5586 79.1803 63.1347 79.0047 62.8221 78.6922C62.5096 78.3796 62.334 77.9557 62.334 77.5137V64.1803C62.334 63.7383 62.5096 63.3144 62.8221 63.0018C63.1347 62.6893 63.5586 62.5137 64.0007 62.5137H69.0007C69.4427 62.5137 69.8666 62.6893 70.1792 63.0018C70.4917 63.3144 70.6673 63.7383 70.6673 64.1803V77.5137C70.6673 77.9557 70.4917 78.3796 70.1792 78.6922C69.8666 79.0047 69.4427 79.1803 69.0007 79.1803ZM80.6673 79.1803H75.6673C75.2253 79.1803 74.8014 79.0047 74.4888 78.6922C74.1762 78.3796 74.0007 77.9557 74.0007 77.5137V49.1803C74.0007 48.7383 74.1762 48.3144 74.4888 48.0018C74.8014 47.6893 75.2253 47.5137 75.6673 47.5137H80.6673C81.1093 47.5137 81.5333 47.6893 81.8458 48.0018C82.1584 48.3144 82.334 48.7383 82.334 49.1803V77.5137C82.334 77.9557 82.1584 78.3796 81.8458 78.6922C81.5333 79.0047 81.1093 79.1803 80.6673 79.1803ZM92.334 79.1803H87.334C86.892 79.1803 86.468 79.0047 86.1555 78.6922C85.8429 78.3796 85.6673 77.9557 85.6673 77.5137V59.1803C85.6673 58.7383 85.8429 58.3144 86.1555 58.0018C86.468 57.6893 86.892 57.5137 87.334 57.5137H92.334C92.776 57.5137 93.1999 57.6893 93.5125 58.0018C93.8251 58.3144 94.0007 58.7383 94.0007 59.1803V77.5137C94.0007 77.9557 93.8251 78.3796 93.5125 78.6922C93.1999 79.0047 92.776 79.1803 92.334 79.1803Z" fill="white"/>
</g>
<defs>
<filter id="filter0_d_391_21679" x="0.5" y="0.179688" width="157" height="157" filterUnits="userSpaceOnUse" color-interpolation-filters="sRGB">
<feFlood flood-opacity="0" result="BackgroundImageFix"/>
<feColorMatrix in="SourceAlpha" type="matrix" values="0 0 0 0 0 0 0 0 0 0 0 0 0 0 0 0 0 0 127 0" result="hardAlpha"/>
<feOffset dy="15"/>
<feGaussianBlur stdDeviation="15"/>
<feComposite in2="hardAlpha" operator="out"/>
<feColorMatrix type="matrix" values="0 0 0 0 1 0 0 0 0 0.407843 0 0 0 0 0 0 0 0 0.4 0"/>
<feBlend mode="normal" in2="BackgroundImageFix" result="effect1_dropShadow_391_21679"/>
<feBlend mode="normal" in="SourceGraphic" in2="effect1_dropShadow_391_21679" result="shape"/>
</filter>
</defs>
</svg>
