<svg width="126" height="35" viewBox="0 0 126 35" fill="none" xmlns="http://www.w3.org/2000/svg">
<path fill-rule="evenodd" clip-rule="evenodd" d="M121.053 26.4043C118.93 26.4043 117.055 28.0011 117.055 30.3632C117.055 32.7206 118.93 34.319 121.053 34.319C123.184 34.319 125.056 32.7206 125.056 30.3632C125.056 28.0011 123.183 26.4043 121.053 26.4043ZM121.056 27.0421C122.929 27.0421 124.289 28.446 124.289 30.3632C124.289 32.275 122.929 33.6789 121.056 33.6789C119.187 33.6789 117.825 32.2773 117.825 30.3632C117.825 28.446 119.187 27.0421 121.056 27.0421ZM120.207 32.7027V30.5335L120.211 30.5351V30.5327H120.891C121.356 30.5327 121.572 30.6805 121.695 31.0857C121.759 31.317 121.792 31.5677 121.824 31.8141C121.867 32.1356 121.908 32.4498 122.017 32.7043H122.846C122.714 32.5539 122.633 31.9806 122.573 31.5514C122.563 31.4833 122.554 31.4189 122.545 31.3603C122.462 30.7 122.313 30.3391 121.909 30.2745V30.2543C122.375 30.1929 122.736 29.769 122.736 29.2339C122.736 28.3651 122.268 27.9194 121.248 27.9194H119.506V32.7027H120.207ZM121.076 29.9152C121.756 29.9152 121.951 29.5527 121.951 29.2331C121.951 28.8551 121.756 28.5564 121.076 28.5564H120.207V29.9167H121.076V29.9152Z" fill="white"/>
<path fill-rule="evenodd" clip-rule="evenodd" d="M65.9395 0.361328V33.6292H84.4023H94.0172L98.5867 28.4593L103.197 33.6292H113.153L103.673 23.0273L113.023 12.511H103.455L98.974 17.6412L94.3175 12.511H84.4023H73.76V7.77666H84.4023V0.361328H65.9395ZM84.4023 12.511L93.7995 23.0717L84.4023 33.6292V26.1952H73.76V19.6463H84.4023V12.511Z" fill="white"/>
<path fill-rule="evenodd" clip-rule="evenodd" d="M58.1474 0.363281V13.9767H58.0611C56.3368 11.9949 54.1815 11.3043 51.6825 11.3043C46.5616 11.3043 42.7039 14.7879 41.3498 19.3901C39.8051 14.3182 35.8221 11.2094 29.9172 11.2094C25.1206 11.2094 21.3344 13.3615 19.3565 16.8693V12.5106H9.44376V7.77784H20.2626V0.363281H0.607422V33.6296H9.44376V19.6467H18.2513C17.98 20.722 17.8444 21.827 17.8476 22.9359C17.8476 29.8722 23.1482 34.7465 29.9156 34.7465C35.6043 34.7465 39.3563 32.0733 41.3389 27.2067H33.7656C32.7421 28.6713 31.9643 29.1037 29.9164 29.1037C27.5426 29.1037 25.494 27.0317 25.494 24.5786H40.9142C41.5831 30.0892 45.8764 34.8406 51.7689 34.8406C54.3106 34.8406 56.6378 33.5907 58.0603 31.4791H58.1459V33.6343H65.9369V0.363281H58.1474ZM25.7398 19.7463C26.2321 17.6323 27.8709 16.2509 29.9164 16.2509C32.1689 16.2509 33.7244 17.5895 34.1328 19.7463H25.7398ZM48.7643 23.0985C48.7643 25.8923 50.5485 28.5671 53.4193 28.5671C56.5631 28.5671 57.9211 25.9281 57.9211 23.0985C57.9211 20.1134 56.6385 17.2426 53.4193 17.2426C50.3168 17.2426 48.7643 20.1118 48.7643 23.0985Z" fill="white"/>
</svg>
