<svg width="122" height="36" viewBox="0 0 122 36" fill="none" xmlns="http://www.w3.org/2000/svg">
<path fill-rule="evenodd" clip-rule="evenodd" d="M5.09483 6.70312H0.886719V29.6525H5.09483V20.107H13.97V29.6525H18.1835V6.70312H13.97V16.0523H5.09483V6.70312ZM28.0289 25.662C29.9496 25.662 31.5148 24.0987 31.5148 22.1776V12.297H35.5041V22.1776C35.5041 26.2996 32.1503 29.6525 28.0289 29.6525C23.9066 29.6525 20.5525 26.2996 20.5525 22.1776V12.297H24.5433V22.1776C24.5433 24.0987 26.1076 25.662 28.0289 25.662ZM46.6448 12.4128C44.6652 12.4128 43.2834 12.9872 41.949 14.2971V6.70312H37.9453V20.7769C37.9453 26.0448 41.7541 29.6525 46.0331 29.6525C50.7902 29.6525 54.9583 25.9805 54.9583 21.0329C54.9583 16.148 51.1148 12.4128 46.6448 12.4128ZM41.9568 21.0329C41.9568 23.6829 44.0314 25.9486 46.7443 25.9486C49.0431 25.9486 51.1188 23.6829 51.1188 21.0329C51.1188 18.3824 49.0431 16.116 46.7443 16.116C44.0314 16.116 41.9568 18.3824 41.9568 21.0329ZM61.6827 13.4214C61.6827 11.4088 63.0237 10.7707 64.4918 10.7707C65.6737 10.7707 67.2377 11.6646 68.2584 12.7503L70.8756 9.68572C69.5676 7.93006 66.9183 6.71656 64.7473 6.71656C60.4051 6.71656 57.2764 9.23879 57.2764 13.4214C57.2764 17.8589 60.3998 18.9535 63.0734 19.8904C65.0738 20.5914 66.8224 21.2042 66.8224 23.0629C66.8224 24.4023 65.5139 25.5847 64.0142 25.5847C61.8674 25.5847 61.0382 24.6363 60.091 23.5529C59.9954 23.4436 59.8987 23.333 59.7993 23.2218L56.8936 26.2223C58.7463 28.4893 61.0441 29.6391 63.7901 29.6391C67.9081 29.6391 71.2285 27.0851 71.2285 23.0938C71.2285 17.896 67.7572 16.808 65.0012 15.9442C63.1869 15.3756 61.6827 14.9041 61.6827 13.4214ZM73.6807 21.0626C73.6807 15.7935 77.49 12.1879 81.7686 12.1879C86.5247 12.1879 90.694 15.859 90.694 20.8073C90.694 25.6922 86.8501 29.427 82.3803 29.427C80.4 29.427 79.0189 28.8516 77.6842 27.5426V35.1727H73.6807V21.0626ZM82.48 25.7242C79.7673 25.7242 77.6925 23.4554 77.6925 20.8073C77.6925 18.1569 79.7673 15.8904 82.48 15.8904C84.7783 15.8904 86.8543 18.1569 86.8543 20.8073C86.8543 23.4554 84.7783 25.7242 82.48 25.7242ZM117.132 23.3625C117.132 24.9275 117.803 25.9486 120.164 25.9486C120.613 25.9486 121.123 25.9168 121.57 25.8859L120.58 29.525C120.197 29.6195 119.494 29.6525 118.983 29.6525C115.568 29.6525 113.079 27.8325 113.079 24.2246V10.1136L117.132 8.29425V12.9238H120.803V16.4351H117.132V23.3625Z" fill="white"/>
<path fill-rule="evenodd" clip-rule="evenodd" d="M106.41 13.4638C107.76 14.2608 108.839 15.3194 109.607 16.6399C110.361 17.9508 110.72 19.3816 110.72 20.9324V21.0111C110.72 22.5877 110.274 24.0206 109.463 25.3176C108.657 26.611 107.59 27.6241 106.227 28.365C104.933 29.066 103.556 29.4087 102.097 29.4087H101.855C100.536 29.4087 99.3296 29.1209 98.237 28.6485C97.6831 28.4093 97.1678 28.1318 96.6907 27.8023L93.2107 31.2827C93.2927 31.5444 93.3363 31.8197 93.3363 32.1019C93.3381 32.826 93.0504 33.5208 92.5372 34.0317C92.0263 34.5455 91.3311 34.8336 90.6064 34.8318C89.882 34.8337 89.187 34.5456 88.6764 34.0317C88.1606 33.5162 87.8765 32.831 87.8763 32.1019C87.8739 31.3775 88.1615 30.6823 88.6749 30.1713C89.4248 29.4174 90.5462 29.1715 91.5427 29.5424L94.9095 26.1673C94.3525 25.4802 93.9028 24.7202 93.5952 23.8844C93.2458 22.9271 93.0407 21.9081 93.0407 20.8287V20.5079C93.0407 18.9703 93.5355 17.5606 94.3452 16.2795C94.7448 15.6511 95.2443 15.091 95.7805 14.5986L85.636 7.2893L84.8977 6.72922C84.3664 7.04933 83.7507 7.24404 83.085 7.24404C81.1335 7.24404 79.5527 5.66234 79.5527 3.71175C79.5527 1.76091 81.1318 0.179688 83.0834 0.179688C85.0349 0.179688 86.6147 1.76091 86.6147 3.71175C86.6147 4.03704 86.5508 4.34537 86.4679 4.6445C89.1416 6.67291 93.2651 9.80534 95.8747 11.7877C96.6795 12.3991 97.3404 12.9011 97.7703 13.2276C98.6632 12.776 99.641 12.482 100.584 12.3458V8.14803C99.4052 7.6476 98.716 6.53994 98.716 5.24771C98.716 3.4864 100.153 2.0591 101.915 2.0591C103.674 2.0591 105.087 3.4864 105.087 5.24771C105.087 6.53994 104.355 7.6476 103.177 8.14803V12.3439C104.355 12.5039 105.401 12.8766 106.41 13.4638ZM102.097 25.6372C103.325 25.6372 104.41 24.9906 105.355 23.9409C106.177 23.0365 106.588 22.0401 106.588 20.9642C106.588 20.803 106.582 20.6342 106.569 20.4695C106.486 19.6767 106.23 18.9491 105.799 18.2744C105.355 17.6 104.782 17.0873 104.081 16.712C103.394 16.3601 102.665 16.2083 101.895 16.2083H101.816C100.967 16.2083 100.205 16.4391 99.4908 16.9096C98.7638 17.3834 98.2172 17.9793 97.8125 18.7456C97.4339 19.4467 97.2837 20.1889 97.2837 20.9718V21.2136C97.2837 22.0099 97.5478 22.7609 98.0343 23.4487C98.505 24.1495 99.0802 24.703 99.8368 25.091C100.508 25.4434 101.194 25.6372 101.895 25.6372H102.097Z" fill="white"/>
</svg>
