<svg width="155" height="36" viewBox="0 0 155 36" fill="none" xmlns="http://www.w3.org/2000/svg">
<path d="M147.879 2.78711L154.336 2.82268C154.336 2.82268 142.332 19.0879 141.352 20.4135C141.034 20.8427 140.55 21.3056 140.305 21.8795C139.685 23.322 139.048 26.4865 139.048 26.4865L133.141 26.5161C133.141 26.5161 134.06 23.2175 134.022 21.4606C133.989 19.9258 133.206 18.3928 132.766 16.8535C132.322 15.2952 131.719 12.2462 131.719 12.2462H137.792L138.63 15.597L147.879 2.78711" fill="white"/>
<path fill-rule="evenodd" clip-rule="evenodd" d="M70.5152 19.603C71.9887 15.8734 73.5979 11.8003 73.0835 8.05862C72.761 5.71728 71.2344 3.1731 69.5588 2.10702C69.5276 2.08796 69.4485 2.0282 69.3635 1.96397L69.3632 1.96374L69.3632 1.96369L69.3631 1.96362L69.3629 1.96351C69.2612 1.88662 69.1512 1.80346 69.1046 1.77607C67.8646 1.05781 65.8795 0.452586 64.4973 0.310322C57.3711 -0.420593 53.12 2.7457 50.6762 7.01123C49.7147 8.68676 49.0784 10.5169 48.582 12.4565C48.0332 14.6046 47.6395 17.21 47.9536 19.5763C48.1423 20.9939 48.9214 23.0088 50.0481 24.1837C52.5313 26.7718 57.1501 26.74 62.2621 26.7048C62.8617 26.7007 63.4681 26.6965 64.0786 26.6965C65.8608 26.6965 70.1348 26.6609 71.4245 26.6275C71.8414 26.6148 73.0374 21.748 72.9307 21.5909C72.8838 21.5356 72.561 21.5409 72.0692 21.549C71.4846 21.5586 70.6614 21.5721 69.7789 21.4924C70.0126 20.875 70.2619 20.2441 70.5152 19.603ZM115.437 9.75043C116.131 12.2512 114.809 18.1272 114.809 18.1272C114.809 18.1272 107.909 18.012 104.129 18.1272C103.871 18.135 103.602 18.1333 103.335 18.1316H103.335H103.335H103.335H103.335H103.335C102.387 18.1254 101.47 18.1195 101.197 18.5461C100.705 19.3123 101.377 20.4917 101.947 20.9899C102.523 21.4939 103.579 21.6056 104.138 21.6647C104.215 21.6729 104.283 21.68 104.339 21.6871C107.406 22.0768 113.827 21.7878 113.827 21.7878L112.715 26.7128C112.715 26.7128 103.641 27.1679 99.1032 26.0846C98.2071 25.8712 97.367 25.4399 96.7995 24.8284C96.6986 24.7194 96.6064 24.5847 96.5139 24.4495C96.4644 24.3771 96.4148 24.3046 96.3637 24.2358C96.2467 24.0785 95.9055 23.5616 95.7524 23.1528C94.7159 20.3907 95.8739 15.0992 97.009 12.2636L97.0273 12.2179L97.0274 12.2176C97.1559 11.8968 97.3142 11.5019 97.4804 11.164C97.5643 10.9937 97.6433 10.8148 97.7186 10.6443L97.7187 10.6442C97.8386 10.3726 97.9493 10.1221 98.0561 9.9599C98.1196 9.86101 98.1914 9.78124 98.2632 9.70146L98.2633 9.70135C98.3236 9.6343 98.384 9.56724 98.4395 9.4888C98.5796 9.28565 98.7427 9.08883 98.8937 8.91311C99.2884 8.45533 99.7332 8.12383 100.262 7.73006L100.36 7.65684C102.25 6.24083 105.672 5.14159 109.783 5.56236C111.331 5.7215 113.668 6.27429 114.809 7.86602C115.045 8.19324 115.188 8.76883 115.32 9.29741C115.36 9.45534 115.398 9.60907 115.437 9.75073V9.75043ZM137.577 10.8985C137.577 10.8985 136.846 6.93618 135.654 6.21792C134.659 5.61883 132.612 5.67748 130.52 5.73739C129.884 5.75561 129.244 5.77395 128.628 5.77395H124.539C124.192 5.77395 123.864 5.77083 123.556 5.76791L123.556 5.76791C121.59 5.74923 120.426 5.73817 120.202 6.59287C119.402 9.64614 116.013 26.487 116.013 26.487H121.458L125.018 10.9904H127.95C131.343 10.9904 137.577 10.8985 137.577 10.8985ZM109.731 11.6186C110.476 12.7705 110.307 13.7652 110.307 13.7652L102.192 13.7127C102.192 13.7127 102.1 10.2071 106.831 10.3557C108.506 10.4081 109.094 10.6366 109.731 11.6186ZM95.7443 5.72361L90.4648 5.75466L86.6954 21.461C86.6954 21.461 84.6096 21.4761 83.9728 21.461C81.9627 21.4149 81.3029 21.348 80.8318 20.4136C80.4462 19.6506 80.6473 18.7254 80.8641 17.7276C80.9262 17.4416 80.9897 17.1497 81.041 16.854C81.6842 13.1473 83.2298 5.72361 83.2298 5.72361L77.7598 5.77365C77.7598 5.77365 76.7188 10.5419 76.2245 12.8748C76.1254 13.3419 76.0105 13.8402 75.8906 14.3598C75.1645 17.5081 74.2573 21.4414 75.5963 23.9739C76.9935 26.6137 80.0294 26.5636 83.5851 26.5049H83.5852H83.5853H83.5854H83.5856C84.1228 26.4961 84.6719 26.487 85.229 26.487H91.3024C92.8019 19.6809 95.7443 5.72361 95.7443 5.72361ZM65.7538 15.8066C65.8659 15.4085 65.9883 15.0037 66.1115 14.5963C66.5961 12.9941 67.0921 11.3542 67.0104 9.94303C66.8995 8.05018 65.3123 6.32673 64.2881 5.96444C61.2035 4.87545 58.3157 6.39786 57.1679 7.63966C55.6832 9.24798 55.1804 11.1267 54.6548 13.713C54.2636 15.633 53.9429 17.66 54.6548 19.1574C55.7128 21.3794 58.6521 21.329 62.072 21.2705C62.7265 21.2593 63.3987 21.2478 64.0786 21.2519C64.6576 19.7 65.1441 17.9721 65.63 16.2463L65.7538 15.8066ZM47.3526 5.77998C47.2127 6.41713 47.0728 7.08813 46.9317 7.76486C46.718 8.78963 46.5016 9.82754 46.2784 10.7809H40.4148C40.5951 10.0844 40.7586 9.38949 40.9187 8.70917L40.9187 8.70911L40.9187 8.70907C41.1619 7.67548 41.3972 6.67559 41.6713 5.75496C42.5875 5.75496 43.4722 5.76092 44.3777 5.76703C45.3266 5.77343 46.2984 5.77998 47.3529 5.77998H47.3526ZM45.8597 12.247H40.2053C39.9186 13.1892 38.4023 19.5302 37.9019 21.88C37.7899 22.4067 37.6905 22.9361 37.5926 23.4573C36.9349 26.9604 36.3456 30.0987 32.4573 29.628C32.2592 30.3562 32.0363 31.199 31.8065 32.0684C31.5405 33.0745 31.2651 34.1161 31.0078 35.0564C31.4994 35.0665 31.9805 35.084 32.45 35.1011C33.7308 35.1477 34.9261 35.1912 36.0172 35.0729C36.9341 34.9729 38.5906 34.5768 38.9487 34.2353C39.023 34.1644 39.0856 34.147 39.1525 34.1284C39.2158 34.1108 39.283 34.0921 39.3677 34.0258C41.2584 32.5489 41.7636 30.523 42.451 27.7665C42.4701 27.6896 42.4895 27.6122 42.5089 27.5341C43.6564 22.9394 45.1203 16.3389 45.8597 12.247Z" fill="white"/>
<path d="M27.012 22.9259L26.8909 23.24C24.8262 27.2608 21.1674 29.7275 15.9488 29.8363C13.5092 29.8866 11.1848 29.2606 9.66629 28.58C6.38938 27.1076 3.633 24.3772 2.12777 21.4599C-0.03152 17.2778 -0.420939 11.4603 4.06884 7.11523C4.13816 7.11523 3.52419 8.05744 3.59352 8.05744L3.46994 8.45951C0.234623 18.5886 10.2025 27.2692 19.8922 26.2764C22.2208 26.0376 25.1903 24.7624 27.012 22.9259Z" fill="white"/>
<path d="M21.1492 18.7389C23.587 18.7555 26.1333 17.6162 27.6413 16.0166C26.322 19.3653 22.5022 21.5176 17.3801 20.8331C13.0911 20.2592 9.00549 15.9434 8.58472 11.6188C8.27699 8.47147 9.37381 6.5931 11.1814 4.31445C10.5532 5.50622 10.3184 6.42521 10.2599 7.01145C9.57334 13.8197 15.6986 18.7031 21.1492 18.7389Z" fill="white"/>
<path d="M27.3957 10.282C27.0168 11.1512 24.8349 12.7927 23.8713 12.998C20.0558 13.8108 17.6123 12.0015 16.3322 9.94258C16.142 9.63514 15.7903 8.79542 15.7273 8.58172C15.2309 6.89383 15.459 4.3409 16.9399 3.01953C16.4938 4.2761 16.4287 5.73552 16.6635 6.68435C16.8057 7.25793 17.2391 8.25951 17.6729 8.88946C18.462 10.0369 18.9626 10.3157 19.9762 10.9252C20.4329 11.1994 20.9227 11.4195 21.1342 11.4798C22.0954 11.7628 24.1248 12.5082 27.396 10.282" fill="white"/>
</svg>
