<svg width="190" height="35" viewBox="0 0 190 35" fill="none" xmlns="http://www.w3.org/2000/svg">
<path fill-rule="evenodd" clip-rule="evenodd" d="M14.0136 26.3032C23.4759 26.3032 29.4586 21.4283 29.4586 12.936C29.4581 3.60475 23.0578 0.263672 12.6221 0.263672C8.58625 0.263672 3.71605 0.541307 0.238281 0.958942V34.2421H10.3949V26.3032H14.0136ZM19.4419 13.0737C19.4419 17.3914 17.3538 20.3158 12.0654 20.3158H10.3944V6.56462C10.9885 6.53104 11.5433 6.53104 12.0654 6.53104C17.0728 6.53056 19.4419 8.89732 19.4419 13.0737ZM142.721 20.3158C148.011 20.3158 150.096 17.3914 150.096 13.0737C150.096 8.89732 147.729 6.53056 142.721 6.53104C142.201 6.53104 141.645 6.53104 141.056 6.56462V20.3158H142.721ZM144.674 26.3032C154.129 26.3032 160.115 21.4283 160.115 12.936C160.115 3.60475 153.716 0.263672 143.279 0.263672C139.244 0.263672 134.371 0.541307 130.893 0.958942V34.2421H141.055V26.3032H144.674ZM178.062 6.80678C175.143 6.80678 173.332 7.64347 173.332 9.45306C173.332 11.6126 175.997 12.5434 179.152 13.6454C183.729 15.2439 189.337 17.2026 189.337 23.7945C189.337 32.151 182.378 34.9368 173.893 34.9368C170.552 34.9368 166.378 34.3816 163.319 33.2677L162.203 25.6065C165.264 27.1375 170.416 28.2509 173.75 28.2509C177.509 28.2509 179.042 27.1375 179.042 25.0508C179.042 22.8498 176.436 21.9294 173.337 20.8346C168.788 19.228 163.177 17.246 163.177 10.2912C163.177 3.50259 168.741 0.263672 176.951 0.263672C181.263 0.263672 183.629 0.681307 186.274 1.23847L187.108 8.48205C184.745 7.50347 181.263 6.80678 178.062 6.80678ZM123.243 0.958942H113.086V34.2421H123.243V0.958942ZM71.8975 0.958942H82.055V34.2421H71.8975V0.958942ZM99.7263 27.5556V0.958942H89.5687V34.2421H107.938L109.467 27.5556H99.7263ZM54.2267 0.958942H64.3843L64.3838 34.2421H54.2263V21.1506H43.6511V34.2421H33.4921V0.958942H43.6515V14.188H54.2267V0.958942Z" fill="white"/>
</svg>
