<svg width="161" height="35" viewBox="0 0 161 35" fill="none" xmlns="http://www.w3.org/2000/svg">
<path fill-rule="evenodd" clip-rule="evenodd" d="M32.7674 34.5692H22.9512V16.8242H32.7674V34.5692ZM158.108 34.5692H148.291V16.8242H158.108V34.5692Z" fill="white"/>
<path fill-rule="evenodd" clip-rule="evenodd" d="M0.316406 0.63171H153.728C156.002 0.594416 158.12 1.78626 159.267 3.74964C160.415 5.71302 160.415 8.14277 159.267 10.106C158.119 12.0692 156.001 13.2608 153.727 13.2232L17.3059 13.2198V34.4895H0.316406V0.63171ZM17.3068 8.93012H134.883C135.608 8.9451 136.285 8.56678 136.652 7.94112C137.019 7.31546 137.019 6.54027 136.652 5.91461C136.285 5.28896 135.608 4.91064 134.883 4.92561L17.3068 4.91451V8.93012Z" fill="white"/>
<path fill-rule="evenodd" clip-rule="evenodd" d="M63.5347 28.2001C65.5399 27.2918 66.8085 25.272 66.8085 22.9279C66.8085 19.7335 64.2962 16.8242 60.0168 16.8242H39.8184V34.5692H49.6346V28.8437H52.8443L55.8014 34.5692H66.8127L63.5347 28.2001ZM55.2354 24.5456H49.6346V20.7895L55.2354 20.8082C56.2675 20.8082 57.1041 21.6449 57.1041 22.6769C57.1041 23.7089 56.2675 24.5456 55.2354 24.5456ZM94.6164 34.5692H72.9693V16.8242H94.6164V21.1036H82.7847V23.715H94.6164V27.9935H82.7847V30.6048H94.6164V34.5692ZM111.124 16.8242H101.307V34.5692H121.066V30.6048H111.124V16.8242ZM124.444 16.8242H134.259V30.6048H144.202V34.5692H124.444V16.8242Z" fill="white"/>
</svg>
